<svg width="822" height="416" viewBox="0 0 822 416" fill="none" xmlns="http://www.w3.org/2000/svg">
<path opacity="0.99" fill-rule="evenodd" clip-rule="evenodd" d="M233.551 26.5108C248.751 26.4423 263.951 26.5108 279.152 26.7163C322.014 30.0045 358.508 46.7878 388.635 77.0663C408.817 98.5544 420.594 124.038 423.965 153.516C424.601 211.881 424.738 270.246 424.376 328.611C423.935 328.896 423.449 329.104 422.938 329.227C411.846 329.501 400.754 329.501 389.662 329.227C389.017 329.12 388.393 328.912 387.813 328.611C387.564 325.871 387.358 323.13 387.197 320.39C386.775 320.329 386.344 320.401 385.964 320.596C379.142 327.295 370.926 330.858 361.315 331.282C336.392 331.258 319.754 319.544 311.401 296.14C305.255 275.096 308.815 255.915 322.082 238.597C336.494 223.705 353.68 219.115 373.64 224.828C378.154 226.7 382.268 229.421 385.759 232.843C386.033 212.018 386.033 191.193 385.759 170.368C385.211 149.795 378.638 131.436 366.04 115.291C348.676 94.3675 326.834 80.1873 300.514 72.7506C286.247 68.8914 271.541 66.8883 256.762 66.7908C236.432 67.2018 216.096 67.5443 195.755 67.8183C158.261 69.6213 126.56 83.9385 100.651 110.77C83.2539 130.589 75.3798 153.743 77.0286 180.232C77.0916 197.366 77.5024 214.492 78.2611 231.61C88.1207 223.663 99.3498 220.718 111.948 222.773C127.247 225.456 138.819 233.47 146.662 246.818C157.571 267.67 157.297 288.358 145.841 308.882C136.022 323.424 122.26 330.959 104.553 331.488C93.5983 331.592 84.2179 327.893 76.4124 320.39C75.6606 320.6 75.5907 320.941 76.207 321.418C75.8724 323.665 75.6667 325.929 75.5907 328.2C74.9919 328.812 74.1861 329.178 73.3312 329.227C62.513 329.501 51.6948 329.501 40.8765 329.227C40.0982 329.129 39.3375 328.921 38.617 328.611C38.5184 277.165 38.313 225.719 38.0008 174.273C36.6013 139.147 47.351 108.389 70.2501 81.9985C101.292 48.6538 139.703 30.5004 185.485 27.5383C201.572 27.141 217.594 26.7985 233.551 26.5108ZM92.2289 255.449C104.134 254.52 111.461 259.863 114.208 271.479C115.261 277.793 114.252 284.279 111.332 289.975C104.962 298.058 96.9506 300.182 87.2991 296.346C81.449 293.074 78.094 288.073 77.234 281.343C75.7441 272.575 78.1405 265.108 84.4233 258.943C86.8031 257.334 89.4443 256.152 92.2289 255.449ZM363.369 255.449C375.93 254.353 383.393 259.97 385.759 272.301C386.825 278.528 385.661 284.932 382.473 290.386C377.269 297.085 370.49 299.483 362.137 297.579C354.435 295.077 349.985 289.802 348.785 281.754C347.142 272.849 349.539 265.245 355.975 258.943C358.271 257.45 360.758 256.275 363.369 255.449Z" fill="#0A0A0A"/>
<path opacity="0.98" fill-rule="evenodd" clip-rule="evenodd" d="M270.114 173.245C276.328 172.529 282.594 174.06 287.779 177.561C295.037 184.252 297.433 192.404 294.968 202.017C291.473 211.807 284.489 216.876 274.016 217.224C261.577 216.558 254.319 210.119 252.243 197.906C251.66 184.869 257.616 176.648 270.114 173.245Z" fill="#0A0A0A"/>
<path opacity="0.98" fill-rule="evenodd" clip-rule="evenodd" d="M238.48 222.156C239.31 222.011 240.162 222.046 240.977 222.259C241.792 222.471 242.552 222.857 243.205 223.39C242.657 234.75 241.835 245.985 240.74 257.093C240.433 257.352 240.086 257.56 239.713 257.71C231.961 257.799 224.347 259.774 217.529 263.464C213.724 265.735 210.876 269.315 209.518 273.534C208.97 291.737 208.696 309.959 208.696 328.2C208.233 328.765 207.572 329.132 206.847 329.227C194.777 329.627 182.727 329.49 170.695 328.816C170.216 294.249 170.147 259.655 170.49 225.034C170.797 224.775 171.144 224.567 171.517 224.417C183.157 224.143 194.797 224.143 206.437 224.417C206.667 224.512 206.877 224.651 207.053 224.828C207.229 225.004 207.369 225.214 207.464 225.445C207.585 228.48 207.929 231.502 208.491 234.487C216.99 227.403 227.458 223.099 238.48 222.156Z" fill="#0A0A0A"/>
<path opacity="0.99" fill-rule="evenodd" clip-rule="evenodd" d="M486.204 222.156C494.426 221.57 502.655 223.202 510.032 226.883C512.867 228.624 515.487 230.693 517.837 233.049C518.217 233.243 518.648 233.315 519.07 233.254C519.141 230.514 519.346 227.774 519.686 225.034C519.993 224.775 520.34 224.567 520.713 224.417C532.35 224.143 543.99 224.143 555.633 224.417L556.249 225.034C556.523 257.915 556.523 290.797 556.249 323.678C553.683 343.544 543.344 357.725 525.232 366.219C511.605 371.897 496.796 374.155 482.096 372.795C468.88 372.082 456.042 368.13 444.712 361.287C444.394 361.076 444.121 360.803 443.91 360.486C443.698 360.168 443.552 359.812 443.479 359.437C445.944 349.814 448.683 340.292 451.695 330.871C451.873 330.737 452.089 330.665 452.312 330.665C452.534 330.665 452.75 330.737 452.928 330.871C466.074 338.289 480.179 341.166 495.242 339.503C504.478 338.76 511.393 334.444 515.989 326.556C516.43 325.169 516.909 323.799 517.427 322.445C517.303 322.119 517.089 321.834 516.81 321.623C506.622 330.392 494.914 333.337 481.685 330.46C461.925 326.175 449.121 314.324 443.274 294.907C437.07 273.879 440.768 254.835 454.366 237.775C463.13 228.771 473.743 223.565 486.204 222.156ZM495.653 255.449C508.049 254.496 515.375 260.113 517.632 272.301C518.698 278.528 517.534 284.932 514.345 290.386C509.281 297.006 502.64 299.404 494.421 297.579C492.122 297.144 489.95 296.198 488.065 294.811C486.181 293.424 484.632 291.631 483.534 289.564C478.818 280.724 478.955 271.956 483.945 263.258C485.28 261.244 487.003 259.516 489.013 258.175C491.024 256.834 493.281 255.907 495.653 255.449Z" fill="#0A0A0A"/>
<path opacity="0.99" fill-rule="evenodd" clip-rule="evenodd" d="M621.775 222.156C636.967 221.126 650.798 224.894 663.267 233.459C673.209 241.768 679.166 252.386 681.138 265.314C682.052 273.381 681.913 281.532 680.727 289.564C680.42 289.823 680.073 290.031 679.7 290.18C657.691 290.249 635.712 290.454 613.764 290.797C614.47 295.343 617.004 298.425 621.364 300.045C628.29 302.004 634.863 301.182 641.083 297.579C642.545 296.177 644.206 294.999 646.013 294.085C655.873 298.505 665.527 303.3 674.976 308.471C674.947 309.23 674.657 309.956 674.154 310.526C665.341 321.549 653.906 328.194 639.851 330.46C621.041 333.551 604.06 329.441 588.909 318.13C579.901 310.041 574.492 299.971 572.682 287.92C570.137 271.314 573.561 256.107 582.952 242.296C589.455 233.909 598.442 227.795 608.628 224.828C612.952 223.672 617.343 222.78 621.775 222.156ZM624.24 252.572C629.84 251.859 634.565 253.504 638.413 257.504C639.799 259.412 640.521 261.722 640.467 264.08C631.664 264.557 622.832 264.626 613.969 264.286C614.355 257.8 617.779 253.895 624.24 252.572Z" fill="#0A0A0A"/>
<path opacity="0.98" fill-rule="evenodd" clip-rule="evenodd" d="M734.339 222.157C744.723 221.853 755.098 223.03 765.15 225.65C769.532 227.087 773.79 228.874 777.886 230.993C779.478 231.777 780.88 232.9 781.994 234.282C777.031 242.294 771.965 250.24 766.794 258.121C766.468 258.257 766.119 258.327 765.767 258.327C765.414 258.327 765.065 258.257 764.74 258.121C754.79 253.049 744.382 251.61 733.517 253.805C732.515 254.915 732.652 255.942 733.928 256.888L736.393 258.121C744.223 260.25 752.029 262.442 759.81 264.697C780.433 271.92 787.896 286.1 782.199 307.238C777.404 317.417 769.667 324.336 758.988 327.994C738.694 333.951 719.111 332.17 700.241 322.651C697.628 321.192 695.269 319.318 693.257 317.102C697.76 309.531 702.416 302.064 707.225 294.702C711.662 296.296 716.181 297.803 720.782 299.223C728.287 301.25 736.157 301.531 743.788 300.045C745.039 299.036 745.245 297.872 744.404 296.551C743.276 295.883 742.112 295.266 740.912 294.702C733.243 292.594 725.575 290.539 717.906 288.536C710.223 286.53 703.296 282.314 697.981 276.411C695.748 273.398 694.333 269.858 693.873 266.136C692.504 243.256 702.98 229.075 725.301 223.595C728.363 223.047 731.376 222.568 734.339 222.157Z" fill="#0A0A0A"/>
<path opacity="0.97" fill-rule="evenodd" clip-rule="evenodd" d="M255.735 224.211C267.922 224.143 280.11 224.211 292.298 224.417L292.914 225.034C293.385 240.017 293.59 255.019 293.53 270.04C293.621 289.668 293.347 309.26 292.709 328.816C286.431 329.285 280.132 329.49 273.811 329.433L256.556 329.227C256.046 329.104 255.56 328.896 255.119 328.611C254.437 294.512 254.3 260.398 254.708 226.267C254.843 225.496 255.2 224.782 255.735 224.211Z" fill="#0A0A0A"/>
<path opacity="0.87" fill-rule="evenodd" clip-rule="evenodd" d="M38.8223 355.738C45.5351 355.67 52.2451 355.738 58.9524 355.944C60.4259 356.982 60.5628 358.215 59.3632 359.643C53.5265 359.58 47.6925 359.923 41.9034 360.67C41.6282 362.991 41.6282 365.337 41.9034 367.658C42.0266 368.168 42.2349 368.655 42.5197 369.096L57.3092 369.507C58.6238 370.483 58.7607 371.579 57.72 372.795C52.5387 373.388 47.3206 373.594 42.1089 373.412V382.865C47.9918 383.161 53.8802 383.367 59.7741 383.482C60.8148 384.545 60.8148 385.641 59.7741 386.77C52.6532 387.044 45.5323 387.044 38.4115 386.77L37.7953 386.154C37.5214 376.289 37.5214 366.425 37.7953 356.56C38.181 356.345 38.5281 356.067 38.8223 355.738Z" fill="#0A0A0A"/>
<path opacity="0.88" fill-rule="evenodd" clip-rule="evenodd" d="M67.5796 355.738C68.5205 355.653 69.466 355.84 70.3036 356.277C71.1411 356.715 71.8355 357.383 72.304 358.204C77.5461 364.994 82.8867 371.708 88.326 378.344C88.8737 371.143 89.1476 363.882 89.1476 356.56C90.3801 355.464 91.6125 355.464 92.845 356.56C93.1189 366.425 93.1189 376.289 92.845 386.154C92.4427 386.538 91.9395 386.8 91.3939 386.909C90.8483 387.019 90.283 386.97 89.7639 386.77C83.7851 379.561 77.9651 372.231 72.304 364.78C72.1078 364.613 71.8779 364.489 71.6298 364.418C71.3817 364.348 71.1213 364.331 70.8662 364.369C70.7265 371.768 70.5211 379.166 70.2499 386.565C69.2847 387.016 68.1854 387.089 67.1688 386.77C66.9101 386.463 66.702 386.116 66.5526 385.743C66.2787 376.152 66.2787 366.562 66.5526 356.971C66.9691 356.628 67.3175 356.21 67.5796 355.738Z" fill="#0A0A0A"/>
<path opacity="0.84" fill-rule="evenodd" clip-rule="evenodd" d="M99.6236 355.738C107.158 355.67 114.69 355.738 122.219 355.944C123.862 357.196 123.862 358.429 122.219 359.643C119.242 359.717 116.297 359.922 113.386 360.259C113.249 368.891 113.112 377.522 112.975 386.154C112.496 386.549 111.922 386.814 111.31 386.922C110.698 387.03 110.069 386.978 109.483 386.77C109.198 386.329 108.99 385.842 108.867 385.332C108.73 376.974 108.593 368.617 108.456 360.259C105.545 359.922 102.601 359.717 99.6236 359.643C98.55 358.344 98.55 357.042 99.6236 355.738Z" fill="#0A0A0A"/>
<path opacity="0.87" fill-rule="evenodd" clip-rule="evenodd" d="M130.435 355.738C137.008 355.67 143.581 355.738 150.154 355.944C151.625 356.982 151.762 358.215 150.565 359.643C144.814 359.848 139.062 359.917 133.311 359.848C133.181 362.937 133.319 366.031 133.722 369.096L148.922 369.507C150.122 370.935 149.985 372.168 148.511 373.206C143.444 373.412 138.378 373.48 133.311 373.412C133.181 376.501 133.319 379.595 133.722 382.66C135.843 383.385 138.132 383.456 140.295 382.865C143.981 383.186 147.679 383.392 151.387 383.482C151.697 383.997 151.825 384.601 151.75 385.197C151.676 385.794 151.403 386.348 150.976 386.77C143.857 387.107 136.725 387.038 129.613 386.565C129.134 376.563 129.066 366.562 129.408 356.56C129.794 356.345 130.141 356.067 130.435 355.738Z" fill="#0A0A0A"/>
<path opacity="0.89" fill-rule="evenodd" clip-rule="evenodd" d="M159.192 355.738C163.985 355.67 168.778 355.738 173.571 355.944C181.908 357.758 184.441 362.621 181.171 370.535C179.449 372.13 177.594 373.573 175.625 374.851C177.722 378.181 179.984 381.405 182.404 384.51C182.863 385.246 183.079 386.109 183.02 386.976C181.307 387.23 179.559 386.865 178.09 385.948C175.688 382.376 173.082 378.945 170.284 375.673C168.014 375.029 165.631 374.888 163.3 375.262C163.115 375.336 162.947 375.447 162.806 375.588C162.664 375.73 162.553 375.898 162.479 376.084C162.153 379.424 161.948 382.78 161.863 386.154C160.63 387.25 159.398 387.25 158.165 386.154C157.891 376.289 157.891 366.425 158.165 356.56C158.551 356.345 158.898 356.067 159.192 355.738ZM162.479 359.848C166.179 359.78 169.876 359.848 173.571 360.054C177.756 361.243 179.194 363.915 177.885 368.069C177.342 368.96 176.591 369.706 175.697 370.243C174.802 370.78 173.791 371.092 172.749 371.151C169.326 371.357 165.902 371.425 162.479 371.357C162.154 367.528 162.154 363.678 162.479 359.848Z" fill="#0A0A0A"/>
<path opacity="0.87" fill-rule="evenodd" clip-rule="evenodd" d="M188.361 355.738C195.618 355.67 202.876 355.738 210.134 355.944C211.607 356.982 211.744 358.215 210.545 359.643C207.568 359.717 204.624 359.922 201.712 360.259C201.164 368.866 200.891 377.498 200.891 386.154C199.658 387.25 198.426 387.25 197.193 386.154C197.056 377.522 196.919 368.891 196.782 360.259C193.712 359.985 190.631 359.711 187.539 359.437C186.323 357.862 186.597 356.629 188.361 355.738Z" fill="#0A0A0A"/>
<path opacity="0.87" fill-rule="evenodd" clip-rule="evenodd" d="M224.923 355.738C226.215 355.543 227.533 355.836 228.621 356.56C233.173 366.285 237.555 376.081 241.767 385.948C241.711 386.256 241.568 386.541 241.356 386.77C240.7 386.957 240.011 386.998 239.337 386.892C238.663 386.785 238.02 386.533 237.453 386.154C236.478 383.86 235.451 381.599 234.372 379.372C229.035 379.096 223.687 379.096 218.35 379.372C217.255 381.451 216.228 383.575 215.269 385.743C214.111 387.006 212.741 387.28 211.161 386.565C211.477 384.404 212.173 382.317 213.215 380.399C216.847 372.014 220.75 363.794 224.923 355.738ZM226.156 361.492C228.347 365.69 230.401 370.006 232.318 374.439C228.516 375.046 224.661 375.252 220.815 375.056C220.956 374.084 221.162 373.123 221.431 372.179C222.899 368.559 224.474 364.997 226.156 361.492Z" fill="#0A0A0A"/>
<path opacity="0.81" fill-rule="evenodd" clip-rule="evenodd" d="M249.162 355.738C249.669 355.739 250.171 355.849 250.632 356.062C251.093 356.275 251.502 356.585 251.832 356.971C252.106 366.562 252.106 376.152 251.832 385.743C250.977 387.041 249.813 387.315 248.34 386.565C248.013 385.922 247.804 385.226 247.724 384.509C247.345 375.193 247.482 365.862 248.135 356.56C248.52 356.345 248.867 356.067 249.162 355.738Z" fill="#0A0A0A"/>
<path opacity="0.85" fill-rule="evenodd" clip-rule="evenodd" d="M261.075 355.738C263.146 355.541 264.721 356.363 265.8 358.204C270.845 365.142 276.185 371.856 281.822 378.344C281.959 371.494 282.096 364.644 282.233 357.793C282.945 355.601 284.246 355.19 286.135 356.56C286.612 366.268 286.68 375.996 286.341 385.743C285.656 386.926 284.629 387.269 283.26 386.77C277.538 380.227 272.129 373.445 267.032 366.425C266.347 365.669 265.59 364.981 264.773 364.37C264.43 371.494 264.225 378.618 264.157 385.743C263.16 386.984 261.927 387.258 260.459 386.565C259.786 376.715 259.649 366.836 260.048 356.971C260.317 356.504 260.665 356.087 261.075 355.738Z" fill="#0A0A0A"/>
<path opacity="0.87" fill-rule="evenodd" clip-rule="evenodd" d="M295.584 355.738C296.317 355.696 297.05 355.823 297.726 356.108C298.402 356.393 299.005 356.829 299.487 357.382C302.464 362.383 305.757 367.188 309.347 371.768L319.206 356.971C320.641 355.615 322.148 355.478 323.725 356.56C324.382 365.862 324.519 375.193 324.136 384.509C323.98 386.751 322.816 387.504 320.644 386.77L320.028 386.153C319.823 379.029 319.754 371.905 319.823 364.78C319.567 364.742 319.307 364.759 319.059 364.829C318.811 364.9 318.581 365.024 318.385 365.191C315.617 369.788 312.528 374.183 309.141 378.344C305.754 374.183 302.665 369.788 299.898 365.191L298.665 364.369C298.528 371.631 298.392 378.892 298.255 386.153C297.022 387.25 295.79 387.25 294.557 386.153C294.283 376.289 294.283 366.425 294.557 356.56C294.943 356.345 295.29 356.067 295.584 355.738Z" fill="#0A0A0A"/>
<path opacity="0.85" fill-rule="evenodd" clip-rule="evenodd" d="M333.38 355.738C339.953 355.67 346.526 355.738 353.099 355.944C355.101 356.963 355.238 358.196 353.51 359.643L336.666 360.054L335.844 362.52C336.116 363.171 336.255 363.87 336.255 364.575C336.255 365.28 336.116 365.979 335.844 366.63L336.666 369.096L351.456 369.507C352.658 370.28 352.932 371.308 352.277 372.59C351.493 372.922 350.661 373.13 349.812 373.206C345.296 373.412 340.777 373.48 336.255 373.412C336.126 376.501 336.263 379.595 336.666 382.66C342.541 383.153 348.429 383.427 354.331 383.482C354.641 383.997 354.769 384.601 354.695 385.197C354.62 385.794 354.348 386.347 353.92 386.77C346.733 387.111 339.532 387.042 332.352 386.565C331.675 376.715 331.538 366.836 331.942 356.971C332.388 356.523 332.869 356.111 333.38 355.738Z" fill="#0A0A0A"/>
<path opacity="0.87" fill-rule="evenodd" clip-rule="evenodd" d="M362.137 355.738C362.876 355.625 363.631 355.719 364.32 356.009C365.009 356.299 365.604 356.775 366.04 357.382C371.498 364.693 377.181 371.817 383.089 378.755C383.031 371.743 383.1 364.619 383.294 357.382C384.214 355.659 385.447 355.385 386.992 356.56C387.265 366.425 387.265 376.289 386.992 386.154C385.543 387.263 384.173 387.126 382.883 385.743C377.132 378.218 371.243 370.82 365.218 363.547C365.081 370.946 364.944 378.344 364.807 385.743C363.769 387.217 362.537 387.354 361.11 386.154C360.836 376.289 360.836 366.425 361.11 356.56C361.496 356.345 361.843 356.067 362.137 355.738Z" fill="#0A0A0A"/>
<path opacity="0.85" fill-rule="evenodd" clip-rule="evenodd" d="M394.181 355.738C401.576 355.67 408.97 355.738 416.365 355.944C417.792 357.04 417.929 358.273 416.776 359.643C413.662 359.717 410.581 359.922 407.532 360.259C407.396 368.891 407.259 377.522 407.122 386.154C405.889 387.25 404.657 387.25 403.424 386.154C403.287 377.522 403.15 368.891 403.013 360.259C399.965 359.922 396.884 359.717 393.77 359.643C392.617 358.177 392.754 356.875 394.181 355.738Z" fill="#0A0A0A"/>
</svg>
